<?xml version="1.0" standalone="no"?>
<!DOCTYPE svg PUBLIC "-//W3C//DTD SVG 20010904//EN"
 "http://www.w3.org/TR/2001/REC-SVG-20010904/DTD/svg10.dtd">
<svg version="1.0" xmlns="http://www.w3.org/2000/svg"
 width="283.000000pt" height="283.000000pt" viewBox="0 0 283.000000 283.000000"
 preserveAspectRatio="xMidYMid meet">
<metadata>
Created by potrace 1.14, written by Peter Selinger 2001-2017
</metadata>
<g transform="translate(0.000000,283.000000) scale(0.100000,-0.100000)"
fill="#000000" stroke="none">
<path d="M0 1415 l0 -1415 1415 0 1415 0 0 1415 0 1415 -1415 0 -1415 0 0
-1415z m2462 973 c4 -11 3 -1930 -1 -1950 -2 -12 -2101 -10 -2101 2 0 6 0 444
0 975 0 531 0 970 0 975 0 16 2097 14 2102 -2z"/>
<path d="M470 1415 l0 -875 939 0 c517 0 941 3 943 7 2 5 2 398 0 876 l-2 867
-940 0 -940 0 0 -875z m540 412 c75 -26 121 -85 134 -169 7 -50 -9 -74 -43
-65 -10 2 -26 0 -35 -5 -32 -18 -53 -1 -59 49 -6 52 -33 83 -72 83 -25 0 -75
-51 -75 -78 0 -40 46 -106 114 -164 76 -65 148 -152 171 -206 29 -67 29 -124
2 -183 -34 -74 -66 -103 -136 -123 -68 -19 -127 -11 -194 27 -54 30 -99 119
-95 185 l3 46 55 12 c30 7 58 9 62 6 4 -4 10 -23 13 -42 3 -19 16 -53 28 -75
18 -32 29 -41 54 -43 45 -5 73 26 73 81 0 59 -25 95 -160 228 -127 126 -130
132 -130 245 0 47 6 73 22 101 12 21 26 40 31 41 4 2 20 14 35 27 40 34 139
45 202 22z m508 -9 c14 -18 19 -48 42 -258 24 -217 30 -250 40 -250 4 0 11 30
15 68 3 37 10 83 15 102 5 20 12 60 15 90 13 140 32 242 45 250 40 26 110 1
110 -38 1 -9 8 -57 16 -107 9 -49 17 -103 19 -120 33 -267 45 -287 64 -110 29
260 43 361 53 372 15 19 107 17 114 -2 4 -8 -1 -68 -10 -133 -9 -64 -25 -191
-36 -282 -11 -91 -25 -185 -30 -210 -6 -25 -14 -79 -19 -121 -5 -43 -12 -82
-15 -88 -4 -6 -32 -11 -61 -11 -67 0 -69 3 -85 135 -7 55 -14 103 -16 107 -2
3 -13 63 -23 133 -17 110 -32 160 -44 144 -2 -2 -13 -71 -25 -154 -21 -147
-36 -241 -50 -320 l-7 -40 -65 -3 -65 -3 -28 208 c-16 114 -33 242 -38 283 -5
41 -14 98 -19 125 -5 28 -12 79 -16 115 -4 36 -11 73 -16 83 -15 29 8 47 62
47 26 0 52 -6 58 -12z"/>
</g>
</svg>
