<svg xmlns="http://www.w3.org/2000/svg" viewBox="0 0 402.58 91.54"><defs><style>.cls-1{fill:#fff;}</style></defs><g id="Layer_2" data-name="Layer 2"><g id="Layer_1-2" data-name="Layer 1"><path class="cls-1" d="M53.12,67.15a11.19,11.19,0,0,1-5.85-1.41,8.8,8.8,0,0,1-3.56-4.12,18.32,18.32,0,0,1-1.34-6.68l6.1-1.23a19.37,19.37,0,0,0,.55,4.1,6,6,0,0,0,1.39,2.74,3.26,3.26,0,0,0,2.47,1,2.75,2.75,0,0,0,2.45-1.07,4.66,4.66,0,0,0,.72-2.69,7.42,7.42,0,0,0-1.15-4.3,18.35,18.35,0,0,0-3.07-3.36l-4.9-4.45a15.08,15.08,0,0,1-3.29-4.08A11.6,11.6,0,0,1,42.42,36c0-3.17.89-5.61,2.69-7.32a10.2,10.2,0,0,1,7.34-2.57A10.75,10.75,0,0,1,57,27a7.3,7.3,0,0,1,2.9,2.4,10.85,10.85,0,0,1,1.61,3.49A20.73,20.73,0,0,1,62.19,37l-6,1.09a22.37,22.37,0,0,0-.41-3.36,4.71,4.71,0,0,0-1.11-2.32,3,3,0,0,0-2.32-.84,2.91,2.91,0,0,0-2.43,1.06A4.13,4.13,0,0,0,49,35.26a6.15,6.15,0,0,0,.82,3.34,13.22,13.22,0,0,0,2.35,2.7l4.85,4.4a20.13,20.13,0,0,1,4.1,4.87,12.66,12.66,0,0,1,1.71,6.74,10.37,10.37,0,0,1-1.23,5.1,8.85,8.85,0,0,1-3.41,3.48A10,10,0,0,1,53.12,67.15Z"/><path class="cls-1" d="M79.33,66.61V32H73.14V26.56H92.53V32h-6.1V66.61Z"/><path class="cls-1" d="M104.48,66.61v-40h9.31a19.79,19.79,0,0,1,6.65,1,7.71,7.71,0,0,1,4.13,3.28A12.17,12.17,0,0,1,126,37.14a19.78,19.78,0,0,1-.43,4.35,8.33,8.33,0,0,1-1.46,3.29,6.55,6.55,0,0,1-2.86,2.1l5.43,19.73h-7.11l-4.7-18.34h-3.27V66.61Zm7.1-22.94h2.21a7.39,7.39,0,0,0,3.29-.62,3.53,3.53,0,0,0,1.75-2,9.72,9.72,0,0,0,.53-3.48,7.8,7.8,0,0,0-1.08-4.53c-.72-1-2.09-1.5-4.1-1.5h-2.6Z"/><path class="cls-1" d="M150.18,67.15a12,12,0,0,1-6.58-1.58A8.66,8.66,0,0,1,140.1,61,20.82,20.82,0,0,1,139,54V39a20.1,20.1,0,0,1,1.06-6.94,8.45,8.45,0,0,1,3.5-4.43,15,15,0,0,1,13.22,0,8.62,8.62,0,0,1,3.51,4.43A19.84,19.84,0,0,1,161.41,39v15a20.17,20.17,0,0,1-1.08,7,9,9,0,0,1-3.51,4.55A11.9,11.9,0,0,1,150.18,67.15Zm0-5.39a3.69,3.69,0,0,0,2.61-.79,4,4,0,0,0,1.13-2.17,15,15,0,0,0,.29-3V37.34a14.53,14.53,0,0,0-.29-3,3.83,3.83,0,0,0-1.13-2.1,3.79,3.79,0,0,0-6.31,2.1,14.53,14.53,0,0,0-.29,3V55.78a15.78,15.78,0,0,0,.27,3A3.78,3.78,0,0,0,147.58,61,3.73,3.73,0,0,0,150.18,61.76Z"/><path class="cls-1" d="M175,66.61v-40H180l9.46,22.84V26.56h5.86V66.61h-4.71l-9.5-23.93V66.61Z"/><path class="cls-1" d="M219.34,67.15a10,10,0,0,1-6.09-1.68A9.16,9.16,0,0,1,210,60.7a24,24,0,0,1-1-7.29V40a25.36,25.36,0,0,1,1-7.42,8.67,8.67,0,0,1,3.39-4.77,11.73,11.73,0,0,1,6.69-1.65,12.5,12.5,0,0,1,6.34,1.38,7.83,7.83,0,0,1,3.38,4,17,17,0,0,1,1,6.31v2.07h-6.77V37.59a17.66,17.66,0,0,0-.27-3.32,3.62,3.62,0,0,0-1.05-2.1,3.83,3.83,0,0,0-2.57-.71,3.45,3.45,0,0,0-2.71.94,4.59,4.59,0,0,0-1.06,2.47,24.81,24.81,0,0,0-.21,3.36V55a17.29,17.29,0,0,0,.33,3.61A4.33,4.33,0,0,0,217.76,61a3.77,3.77,0,0,0,2.59.81,3.61,3.61,0,0,0,2.64-.89,4.81,4.81,0,0,0,1.27-2.47,17.06,17.06,0,0,0,.36-3.76V50.89h-4.17v-4.6H231V66.61h-4.56l-.53-4a7.6,7.6,0,0,1-2.33,3.24A6.56,6.56,0,0,1,219.34,67.15Z"/><path class="cls-1" d="M269,66.61l-5.51-40h6l3.21,26,4-25.86h4.84l4.13,25.86,3.17-26h5.86l-5.43,40.05h-5.76l-4.32-26.85-4.27,26.85Z"/><path class="cls-1" d="M304.3,66.61l7.78-40h7.58l7.78,40.05h-6.58l-1.53-9.25h-6.77L311,66.61Zm9-13.89h5.28l-2.64-16.81Z"/><path class="cls-1" d="M343.66,66.61V51.33l-7.87-24.77h6.63l4.79,15.87,4.52-15.87h6.48l-7.78,24.77V66.61Z"/><path class="cls-1" d="M402.58,91.54H0V0H402.58ZM5.2,86.34H397.38V5.2H5.2Z"/></g></g></svg>